<svg width="40" height="40" viewBox="0 0 40 40" fill="none" xmlns="http://www.w3.org/2000/svg">
<g clip-path="url(#clip0_1544_29)">
<path d="M40 31.1275C40 31.9474 39.3361 32.6114 38.5161 32.6114H1.48354C0.664157 32.6114 0 31.9474 0 31.1275V8.87245C0 8.05306 0.664157 7.38867 1.48354 7.38867H38.5162C39.3361 7.38867 40.0001 8.05306 40.0001 8.87245V31.1275H40Z" fill="#21246E"/>
<g clip-path="url(#clip1_1544_29)">
<path d="M12.5312 29.1887V27.9124C12.5312 27.4242 12.231 27.1045 11.7156 27.1045C11.4579 27.1045 11.1776 27.1888 10.985 27.4663C10.8349 27.2334 10.6197 27.1045 10.2969 27.1045C10.0818 27.1045 9.86659 27.1689 9.69645 27.4019V27.1466H9.24609V29.1887H9.69645V28.0611C9.69645 27.6993 9.88911 27.5283 10.1893 27.5283C10.4896 27.5283 10.6397 27.7191 10.6397 28.0611V29.1887H11.0901V28.0611C11.0901 27.6993 11.3052 27.5283 11.583 27.5283C11.8832 27.5283 12.0333 27.7191 12.0333 28.0611V29.1887H12.5312ZM19.2116 27.1466H18.481V26.5296H18.0306V27.1466H17.6228V27.5506H18.0306V28.4873C18.0306 28.9557 18.2233 29.2308 18.7387 29.2308C18.9313 29.2308 19.1465 29.1664 19.2966 29.0821L19.1665 28.698C19.0364 28.7822 18.8863 28.8045 18.7787 28.8045C18.5635 28.8045 18.4785 28.6757 18.4785 28.465V27.5506H19.2091V27.1466H19.2116ZM23.0346 27.102C22.7769 27.102 22.6043 27.2309 22.4967 27.3994V27.1442H22.0463V29.1862H22.4967V28.0363C22.4967 27.6968 22.6468 27.5035 22.927 27.5035C23.0121 27.5035 23.1197 27.5258 23.2073 27.5456L23.3374 27.1194C23.2473 27.102 23.1197 27.102 23.0346 27.102ZM17.2575 27.3152C17.0423 27.1665 16.7421 27.102 16.4193 27.102C15.9039 27.102 15.5611 27.3573 15.5611 27.7612C15.5611 28.1007 15.8189 28.294 16.2692 28.356L16.4844 28.3783C16.7196 28.4204 16.8497 28.4849 16.8497 28.5914C16.8497 28.7401 16.677 28.8467 16.3768 28.8467C16.0766 28.8467 15.8389 28.7401 15.6887 28.6336L15.4736 28.9731C15.7088 29.1441 16.0315 29.2283 16.3543 29.2283C16.9548 29.2283 17.3 28.9508 17.3 28.5691C17.3 28.2073 17.0198 28.0165 16.592 27.952L16.3768 27.9297C16.1841 27.9074 16.034 27.8653 16.034 27.7389C16.034 27.5902 16.1841 27.506 16.4218 27.506C16.6795 27.506 16.9372 27.6125 17.0674 27.677L17.2575 27.3152ZM29.2396 27.102C28.9819 27.102 28.8092 27.2309 28.7017 27.3994V27.1442H28.2513V29.1862H28.7017V28.0363C28.7017 27.6968 28.8518 27.5035 29.132 27.5035C29.2171 27.5035 29.3247 27.5258 29.4122 27.5456L29.5423 27.1243C29.4548 27.102 29.3272 27.102 29.2396 27.102ZM23.485 28.1677C23.485 28.7847 23.9153 29.2308 24.5809 29.2308C24.8811 29.2308 25.0963 29.1664 25.3114 28.9978L25.0963 28.636C24.9236 28.7649 24.7535 28.8269 24.5583 28.8269C24.1931 28.8269 23.9353 28.5716 23.9353 28.1677C23.9353 27.7835 24.1931 27.5283 24.5583 27.5085C24.751 27.5085 24.9236 27.5729 25.0963 27.6993L25.3114 27.3375C25.0963 27.1665 24.8811 27.1045 24.5809 27.1045C23.9153 27.102 23.485 27.5506 23.485 28.1677ZM27.6508 28.1677V27.1466H27.2005V27.4019C27.0503 27.2111 26.8352 27.1045 26.5549 27.1045C25.9745 27.1045 25.5241 27.5506 25.5241 28.1677C25.5241 28.7847 25.9745 29.2308 26.5549 29.2308C26.8552 29.2308 27.0704 29.1242 27.2005 28.9334V29.1887H27.6508V28.1677ZM25.997 28.1677C25.997 27.8058 26.2322 27.5085 26.62 27.5085C26.9853 27.5085 27.243 27.786 27.243 28.1677C27.243 28.5295 26.9853 28.8269 26.62 28.8269C26.2347 28.8045 25.997 28.527 25.997 28.1677ZM20.6077 27.102C20.0072 27.102 19.5769 27.5283 19.5769 28.1652C19.5769 28.8045 20.0072 29.2283 20.6302 29.2283C20.9304 29.2283 21.2307 29.1441 21.4684 28.9508L21.2532 28.6311C21.0806 28.7599 20.8654 28.8442 20.6527 28.8442C20.3725 28.8442 20.0948 28.7153 20.0297 28.356H21.5534C21.5534 28.2916 21.5534 28.2494 21.5534 28.185C21.5735 27.5283 21.1856 27.102 20.6077 27.102ZM20.6077 27.4861C20.8879 27.4861 21.0806 27.6571 21.1231 27.9744H20.0497C20.0923 27.6993 20.2849 27.4861 20.6077 27.4861ZM31.7966 28.1677V26.3387H31.3463V27.4019C31.1962 27.2111 30.981 27.1045 30.7008 27.1045C30.1203 27.1045 29.6699 27.5506 29.6699 28.1677C29.6699 28.7847 30.1203 29.2308 30.7008 29.2308C31.001 29.2308 31.2162 29.1242 31.3463 28.9334V29.1887H31.7966V28.1677ZM30.1428 28.1677C30.1428 27.8058 30.378 27.5085 30.7658 27.5085C31.1311 27.5085 31.3888 27.786 31.3888 28.1677C31.3888 28.5295 31.1311 28.8269 30.7658 28.8269C30.378 28.8045 30.1428 28.527 30.1428 28.1677ZM15.0657 28.1677V27.1466H14.6154V27.4019C14.4653 27.2111 14.2501 27.1045 13.9699 27.1045C13.3894 27.1045 12.939 27.5506 12.939 28.1677C12.939 28.7847 13.3894 29.2308 13.9699 29.2308C14.2701 29.2308 14.4853 29.1242 14.6154 28.9334V29.1887H15.0657V28.1677ZM13.3919 28.1677C13.3919 27.8058 13.6271 27.5085 14.0149 27.5085C14.3802 27.5085 14.6379 27.786 14.6379 28.1677C14.6379 28.5295 14.3802 28.8269 14.0149 28.8269C13.6271 28.8045 13.3919 28.527 13.3919 28.1677Z" fill="white"/>
<path d="M23.8728 11.6381H17.1074V23.6771H23.8728V11.6381Z" fill="#FF5A00"/>
<path d="M17.5576 17.6576C17.5576 15.2116 18.7186 13.0407 20.5 11.6381C19.189 10.6171 17.5351 10 15.7312 10C11.4578 10 8 13.4249 8 17.6576C8 21.8904 11.4578 25.3152 15.7312 25.3152C17.5351 25.3152 19.189 24.6982 20.5 23.6771C18.7161 22.2943 17.5576 20.1036 17.5576 17.6576Z" fill="#EB001B"/>
<path d="M33 17.6576C33 21.8904 29.5422 25.3152 25.2688 25.3152C23.4649 25.3152 21.811 24.6982 20.5 23.6771C22.3039 22.272 23.4424 20.1036 23.4424 17.6576C23.4424 15.2116 22.2814 13.0407 20.5 11.6381C21.8085 10.6171 23.4624 10 25.2663 10C29.5422 10 33 13.4472 33 17.6576Z" fill="#F79E1B"/>
</g>
</g>
<defs>
<clipPath id="clip0_1544_29">
<rect width="40" height="40" fill="white"/>
</clipPath>
<clipPath id="clip1_1544_29">
<rect width="25" height="19.2308" fill="white" transform="translate(8 10)"/>
</clipPath>
</defs>
</svg>
