<svg width="40" height="40" viewBox="0 0 40 40" fill="none" xmlns="http://www.w3.org/2000/svg">
<g clip-path="url(#clip0_1544_25)">
<path d="M40 31.1275C40 31.9474 39.3361 32.6114 38.5161 32.6114H1.48354C0.664157 32.6114 0 31.9474 0 31.1275V8.87245C0 8.05306 0.664157 7.38867 1.48354 7.38867H38.5162C39.3361 7.38867 40.0001 8.05306 40.0001 8.87245V31.1275H40Z" fill="#21246E"/>
<path d="M15.2026 14.6921L10.752 25.3123H7.84703L5.65842 16.8377C5.52365 16.315 5.40848 16.1249 5.00449 15.903C4.34275 15.5452 3.25415 15.2095 2.29297 15.0005L2.3602 14.6922H7.03382C7.62989 14.6922 8.16576 15.0898 8.30053 15.7752L9.45777 21.922L12.3162 14.6922H15.2026V14.6921ZM26.5812 21.8433C26.5941 19.0419 22.7048 18.8894 22.7328 17.6361C22.7404 17.2536 23.103 16.8487 23.8971 16.7465C24.2914 16.694 25.3765 16.6556 26.6065 17.2202L27.0886 14.9692C26.4268 14.7291 25.5762 14.499 24.519 14.499C21.8037 14.499 19.8921 15.9433 19.876 18.0098C19.8582 19.538 21.2398 20.3907 22.282 20.8996C23.3521 21.4204 23.7098 21.7529 23.7061 22.2199C23.6991 22.9327 22.8523 23.2443 22.0625 23.2582C20.6809 23.2798 19.8796 22.8849 19.2396 22.5868L18.7422 24.9153C19.3832 25.2096 20.57 25.4651 21.7983 25.4802C24.6841 25.4801 26.572 24.0512 26.5812 21.8433ZM33.7517 25.3122H36.2932L34.0756 14.692H31.7293C31.2021 14.692 30.7577 14.9995 30.5596 15.4705L26.4396 25.3122H29.3233L29.8957 23.7261H33.4207L33.7517 25.3122ZM30.6861 21.5495L32.1327 17.5618L32.965 21.5495H30.6861ZM19.1287 14.6921L16.8556 25.3122H14.1078L16.3814 14.692H19.1287V14.6921Z" fill="white"/>
</g>
<defs>
<clipPath id="clip0_1544_25">
<rect width="40" height="40" fill="white"/>
</clipPath>
</defs>
</svg>
